<svg xmlns="http://www.w3.org/2000/svg" width="222" height="36" viewBox="0 0 222 36" fill="none"><rect x="0.5" y="0.5" width="37" height="35" rx="17.5" fill="#1A1A1A"></rect><rect x="0.5" y="0.5" width="37" height="35" rx="17.5" stroke="#262626"></rect><path d="M18.1586 9.30996C18.5522 8.69719 19.4478 8.6972 19.8414 9.30996L22.1986 12.9799C22.334 13.1907 22.5436 13.343 22.786 13.4067L27.0047 14.5144C27.7091 14.6994 27.9859 15.5512 27.5247 16.1148L24.7628 19.4907C24.6042 19.6847 24.5241 19.9311 24.5385 20.1813L24.7886 24.5358C24.8303 25.2629 24.1058 25.7893 23.4272 25.5249L19.363 23.9415C19.1296 23.8505 18.8704 23.8505 18.637 23.9415L14.5728 25.5249C13.8942 25.7893 13.1697 25.2629 13.2114 24.5358L13.4615 20.1813C13.4759 19.9311 13.3958 19.6847 13.2372 19.4907L10.4753 16.1148C10.0141 15.5512 10.2909 14.6994 10.9953 14.5144L15.214 13.4067C15.4564 13.343 15.666 13.1907 15.8014 12.9799L18.1586 9.30996Z" fill="#FFE600"></path><rect x="46.5" y="0.5" width="37" height="35" rx="17.5" fill="#1A1A1A"></rect><rect x="46.5" y="0.5" width="37" height="35" rx="17.5" stroke="#262626"></rect><path d="M64.1586 9.30996C64.5522 8.69719 65.4478 8.6972 65.8414 9.30996L68.1986 12.9799C68.334 13.1907 68.5436 13.343 68.786 13.4067L73.0047 14.5144C73.7091 14.6994 73.9859 15.5512 73.5247 16.1148L70.7628 19.4907C70.6042 19.6847 70.5241 19.9311 70.5385 20.1813L70.7886 24.5358C70.8303 25.2629 70.1058 25.7893 69.4272 25.5249L65.363 23.9415C65.1296 23.8505 64.8704 23.8505 64.637 23.9415L60.5728 25.5249C59.8942 25.7893 59.1697 25.2629 59.2114 24.5358L59.4615 20.1813C59.4759 19.9311 59.3958 19.6847 59.2372 19.4907L56.4753 16.1148C56.0141 15.5512 56.2909 14.6994 56.9953 14.5144L61.214 13.4067C61.4564 13.343 61.666 13.1907 61.8014 12.9799L64.1586 9.30996Z" fill="#FFE600"></path><rect x="92.5" y="0.5" width="37" height="35" rx="17.5" fill="#1A1A1A"></rect><rect x="92.5" y="0.5" width="37" height="35" rx="17.5" stroke="#262626"></rect><path d="M110.159 9.30996C110.552 8.69719 111.448 8.6972 111.841 9.30996L114.199 12.9799C114.334 13.1907 114.544 13.343 114.786 13.4067L119.005 14.5144C119.709 14.6994 119.986 15.5512 119.525 16.1148L116.763 19.4907C116.604 19.6847 116.524 19.9311 116.538 20.1813L116.789 24.5358C116.83 25.2629 116.106 25.7893 115.427 25.5249L111.363 23.9415C111.13 23.8505 110.87 23.8505 110.637 23.9415L106.573 25.5249C105.894 25.7893 105.17 25.2629 105.211 24.5358L105.462 20.1813C105.476 19.9311 105.396 19.6847 105.237 19.4907L102.475 16.1148C102.014 15.5512 102.291 14.6994 102.995 14.5144L107.214 13.4067C107.456 13.343 107.666 13.1907 107.801 12.9799L110.159 9.30996Z" fill="#FFE600"></path><rect x="138.5" y="0.5" width="37" height="35" rx="17.5" fill="#1A1A1A"></rect><rect x="138.5" y="0.5" width="37" height="35" rx="17.5" stroke="#262626"></rect><path d="M156.159 9.30996C156.552 8.69719 157.448 8.6972 157.841 9.30996L160.199 12.9799C160.334 13.1907 160.544 13.343 160.786 13.4067L165.005 14.5144C165.709 14.6994 165.986 15.5512 165.525 16.1148L162.763 19.4907C162.604 19.6847 162.524 19.9311 162.538 20.1813L162.789 24.5358C162.83 25.2629 162.106 25.7893 161.427 25.5249L157.363 23.9415C157.13 23.8505 156.87 23.8505 156.637 23.9415L152.573 25.5249C151.894 25.7893 151.17 25.2629 151.211 24.5358L151.462 20.1813C151.476 19.9311 151.396 19.6847 151.237 19.4907L148.475 16.1148C148.014 15.5512 148.291 14.6994 148.995 14.5144L153.214 13.4067C153.456 13.343 153.666 13.1907 153.801 12.9799L156.159 9.30996Z" fill="#FFE600"></path><rect x="184.5" y="0.5" width="37" height="35" rx="17.5" fill="#1A1A1A"></rect><rect x="184.5" y="0.5" width="37" height="35" rx="17.5" stroke="#262626"></rect><path d="M202.159 9.30996C202.552 8.69719 203.448 8.6972 203.841 9.30996L206.199 12.9799C206.334 13.1907 206.544 13.343 206.786 13.4067L211.005 14.5144C211.709 14.6994 211.986 15.5512 211.525 16.1148L208.763 19.4907C208.604 19.6847 208.524 19.9311 208.538 20.1813L208.789 24.5358C208.83 25.2629 208.106 25.7893 207.427 25.5249L203.363 23.9415C203.13 23.8505 202.87 23.8505 202.637 23.9415L198.573 25.5249C197.894 25.7893 197.17 25.2629 197.211 24.5358L197.462 20.1813C197.476 19.9311 197.396 19.6847 197.237 19.4907L194.475 16.1148C194.014 15.5512 194.291 14.6994 194.995 14.5144L199.214 13.4067C199.456 13.343 199.666 13.1907 199.801 12.9799L202.159 9.30996Z" fill="#FFE600"></path></svg>