<svg xmlns="http://www.w3.org/2000/svg" width="20" height="21" viewBox="0 0 20 21" fill="none"><g clip-path="url(#clip0_139_6532)"><g clip-path="url(#clip1_139_6532)"><path d="M0.269455 14.2616H10.11V16.0697H16.2615V14.2655H18.7054C18.8637 16.4158 18.8761 18.3304 16.6707 19.7897C16.6437 19.8075 16.6221 19.8318 16.5623 19.885C16.8335 20.1103 17.1009 20.3329 17.3655 20.5529C17.0082 20.8945 16.7212 21.169 16.3922 21.4842C16.1019 21.1848 15.7879 20.8373 15.4458 20.5207C15.3453 20.4275 15.1673 20.3894 15.0215 20.3802C14.7831 20.3657 14.5414 20.4045 14.301 20.4052C11.1057 20.4071 7.91048 20.4065 4.71457 20.4065C4.56154 20.4065 4.398 20.436 4.25679 20.3933C3.83054 20.2653 3.55994 20.4629 3.30642 20.7684C3.09034 21.0284 2.84405 21.2629 2.61877 21.5007C2.31468 21.1808 2.03949 20.8918 1.73474 20.5707C1.939 20.39 2.19843 20.1602 2.49004 19.9014C2.28906 19.7576 2.13866 19.6577 1.99614 19.5474C0.928209 18.7244 0.350896 17.6329 0.275366 16.2924C0.23793 15.6284 0.268798 14.9604 0.268798 14.2616H0.269455Z" fill="white"></path><path d="M0.275543 9.28712C0.270288 9.16825 0.261093 9.06119 0.261093 8.95413C0.260437 7.21366 0.258466 5.47384 0.261093 3.73336C0.26372 1.82081 1.59108 0.486222 3.50101 0.500014C4.14203 0.504612 4.80275 0.491476 5.41882 0.636625C6.5117 0.894741 7.20001 1.65267 7.53235 2.7206C7.59671 2.92814 7.68012 3.02863 7.90803 3.09037C9.19401 3.43912 10.0964 4.64104 10.1128 5.98219C10.1155 6.19827 10.1128 6.41435 10.1128 6.64882H4.02578C3.73548 5.11392 4.56959 3.52976 6.31335 3.0352C6.15573 2.35017 5.48121 1.7722 4.7732 1.74725C4.23792 1.7282 3.70067 1.72623 3.16539 1.74725C2.24261 1.78337 1.50044 2.63062 1.4965 3.64666C1.48994 5.39765 1.49453 7.14929 1.49453 8.90028C1.49453 9.01981 1.49453 9.13935 1.49453 9.28647H0.274229L0.275543 9.28712Z" fill="white"></path><path d="M10.0931 13.0327C9.96436 13.0327 9.86781 13.0327 9.77126 13.0327C6.64366 13.0327 3.5154 13.0334 0.387794 13.0321C-0.285409 13.0321 -0.769459 12.7135 -0.939566 12.1697C-1.19571 11.3514 -0.615771 10.5632 0.268259 10.5514C1.20877 10.5389 2.14929 10.5481 3.0898 10.5481C5.29922 10.5481 7.50799 10.5481 9.71741 10.5481C9.83563 10.5481 9.95385 10.5481 10.0931 10.5481V13.0321V13.0327Z" fill="white"></path><path d="M15.0237 14.8711H11.3634C11.3575 14.7555 11.3477 14.6504 11.3477 14.5453C11.3464 13.2771 11.3464 12.0082 11.3477 10.7399C11.3483 9.82239 11.8494 9.31798 12.763 9.31404C13.1019 9.31272 13.4408 9.3055 13.7797 9.31601C14.5409 9.34031 15.0381 9.85194 15.0401 10.6151C15.044 11.9385 15.0414 13.2613 15.0401 14.5847C15.0401 14.6708 15.0309 14.7561 15.0237 14.8711Z" fill="white"></path><path d="M16.2832 13.0209V10.5481C16.8782 10.5481 17.4648 10.5462 18.0506 10.5488C18.356 10.5501 18.668 10.5251 18.9668 10.5744C19.619 10.6821 20.0433 11.2161 20.0164 11.8394C19.9901 12.4508 19.5389 12.9756 18.8985 13.0091C18.0394 13.0544 17.1764 13.0203 16.2839 13.0203L16.2832 13.0209Z" fill="white"></path></g></g><defs><clipPath id="clip0_139_6532"><rect width="20" height="20" fill="white" transform="translate(0 0.5)"></rect></clipPath><clipPath id="clip1_139_6532"><rect width="21.0171" height="21" fill="white" transform="translate(-1 0.5)"></rect></clipPath></defs></svg>